<svg xmlns="http://www.w3.org/2000/svg" viewBox="0 0 760 560">
  <defs>
    <linearGradient id="sky" x1="0" y1="0" x2="0" y2="1">
      <stop offset="0" stop-color="#38bdf8" stop-opacity=".18"/>
      <stop offset=".65" stop-color="#0ea5e9" stop-opacity=".08"/>
      <stop offset="1" stop-color="#061427" stop-opacity="0"/>
    </linearGradient>
    <linearGradient id="accent" x1="0" y1="0" x2="1" y2="1">
      <stop offset="0" stop-color="#22c55e"/>
      <stop offset="1" stop-color="#a7f3d0"/>
    </linearGradient>
    <filter id="soft" x="-30%" y="-30%" width="160%" height="160%">
      <feGaussianBlur stdDeviation="10" result="b"/>
      <feColorMatrix in="b" type="matrix"
        values="1 0 0 0 0
                0 1 0 0 0
                0 0 1 0 0
                0 0 0 .55 0" result="o"/>
      <feBlend in="SourceGraphic" in2="o"/>
    </filter>
  </defs>

  <rect width="760" height="560" fill="url(#sky)"/>

  <g opacity=".55" filter="url(#soft)">
    <path fill="#e0f2fe" d="M120 168h230a56 56 0 0 0 0-112 84 84 0 0 0-162 22 50 50 0 0 0-68 90Z"/>
    <path fill="#e0f2fe" d="M420 122h220a54 54 0 0 0 0-108 82 82 0 0 0-158 21 48 48 0 0 0-62 87Z"/>
  </g>

  <g>
    <rect x="92" y="266" width="270" height="176" rx="22" fill="rgba(255,255,255,.08)" stroke="rgba(255,255,255,.14)"/>
    <rect x="120" y="296" width="158" height="14" rx="7" fill="rgba(224,242,254,.72)"/>
    <rect x="120" y="324" width="210" height="10" rx="5" fill="rgba(224,242,254,.28)"/>
    <rect x="120" y="344" width="198" height="10" rx="5" fill="rgba(224,242,254,.24)"/>
    <rect x="120" y="374" width="92" height="34" rx="12" fill="url(#accent)"/>
    <circle cx="318" cy="392" r="14" fill="rgba(56,189,248,.35)"/>
  </g>

  <g>
    <rect x="392" y="244" width="276" height="212" rx="22" fill="rgba(255,255,255,.07)" stroke="rgba(255,255,255,.14)"/>
    <rect x="420" y="274" width="188" height="14" rx="7" fill="rgba(224,242,254,.72)"/>
    <rect x="420" y="304" width="228" height="10" rx="5" fill="rgba(224,242,254,.26)"/>
    <rect x="420" y="324" width="214" height="10" rx="5" fill="rgba(224,242,254,.24)"/>
    <g opacity=".9">
      <rect x="420" y="356" width="228" height="82" rx="16" fill="rgba(6,20,39,.35)" stroke="rgba(255,255,255,.12)"/>
      <path d="M438 420c22-22 38-16 52-30 16-16 24-24 44-14 20 10 30-4 42-16 12-12 30-24 56 0"
        fill="none" stroke="rgba(56,189,248,.82)" stroke-width="4" stroke-linecap="round"/>
      <circle cx="438" cy="420" r="5" fill="#a7f3d0"/>
      <circle cx="534" cy="376" r="5" fill="#a7f3d0"/>
      <circle cx="632" cy="390" r="5" fill="#a7f3d0"/>
    </g>
  </g>

  <g>
    <rect x="104" y="214" width="92" height="36" rx="12" fill="rgba(34,197,94,.18)" stroke="rgba(34,197,94,.35)"/>
    <text x="150" y="238" text-anchor="middle" font-family="ui-sans-serif, system-ui, -apple-system, Segoe UI, Roboto, Arial" font-size="16" fill="#eaf2ff" font-weight="700">IA</text>
  </g>
</svg>

